<?xml version="1.0" encoding="utf-8"?>
<!DOCTYPE svg PUBLIC "-//W3C//DTD SVG 1.1//EN" "http://www.w3.org/Graphics/SVG/1.1/DTD/svg11.dtd">
<svg version="1.1" id="图形" xmlns="http://www.w3.org/2000/svg" xmlns:xlink="http://www.w3.org/1999/xlink" x="0px" y="0px" width="1024px" height="1024px" viewBox="0 0 1024 1024" enable-background="new 0 0 1024 1024" xml:space="preserve">
  <path fill="#272636" d="M530.993075 321.253046 530.993075 594.793026 487.162824 594.793026 487.162824 321.253046 215.367581 321.253046 215.367581 279.168556 487.162824 279.168556 487.162824 5.626529 530.993075 5.626529 530.993075 279.168556 804.536125 279.168556 804.536125 321.253046ZM509.951853 742.968787c-243.562225 0-440.99176-197.451024-440.99176-441.012226 0-243.551992 197.430558-440.99176 440.99176-440.99176s440.992783 197.439768 440.992783 440.99176C950.944636 545.518786 753.514077 742.968787 509.951853 742.968787zM510.383688-100.455531c-220.548068 0-399.360594 178.793082-399.360594 399.351384 0 220.547045 178.812525 399.35036 399.360594 399.35036 220.568535 0 399.360594-178.803315 399.360594-399.35036C909.743258 78.337551 730.952222-100.455531 510.383688-100.455531z" transform="translate(0, 812) scale(1, -1)"/>
</svg>
